<svg id="svg" version="1.1" xmlns="http://www.w3.org/2000/svg" xmlns:xlink="http://www.w3.org/1999/xlink" width="400" height="374.1935483870968" viewBox="0, 0, 400,374.1935483870968"><g id="svgg"><path id="path0" d="M173.588 68.633 C 173.473 69.096,173.428 83.717,173.487 101.124 L 173.596 132.772 184.234 143.427 C 190.085 149.287,195.434 154.463,196.122 154.930 L 197.371 155.778 198.354 154.898 C 199.481 153.888,200.531 152.889,200.993 152.389 C 201.168 152.199,201.732 151.638,202.247 151.142 C 202.762 150.647,203.379 150.046,203.618 149.807 C 203.858 149.568,204.475 148.950,204.990 148.435 C 205.505 147.920,206.095 147.331,206.301 147.125 C 206.507 146.919,207.097 146.329,207.612 145.814 C 208.126 145.299,208.744 144.682,208.983 144.442 C 209.222 144.203,209.823 143.586,210.318 143.071 C 210.814 142.556,211.404 141.966,211.629 141.760 C 211.855 141.554,212.445 140.964,212.940 140.449 C 213.436 139.934,214.025 139.345,214.251 139.139 C 214.477 138.933,215.066 138.343,215.562 137.828 C 216.057 137.313,216.643 136.723,216.864 136.517 C 217.813 135.633,218.441 134.941,219.396 133.730 L 220.412 132.441 220.516 100.586 C 220.613 70.832,220.577 68.700,219.976 68.261 C 219.476 67.895,214.252 67.790,196.565 67.790 L 173.797 67.790 173.588 68.633 M77.972 165.657 L 77.154 166.528 77.154 188.494 C 77.154 209.984,77.170 210.469,77.893 210.856 C 78.401 211.128,88.660 211.220,110.571 211.150 L 142.509 211.049 153.310 200.242 C 159.405 194.144,164.273 188.972,164.482 188.372 C 164.911 187.140,144.357 165.997,142.085 165.334 C 141.494 165.161,127.011 164.967,109.901 164.903 L 78.790 164.786 77.972 165.657 M252.809 165.070 C 251.667 165.206,250.082 166.637,240.531 176.154 L 229.563 187.082 230.018 188.387 C 230.336 189.300,233.717 192.929,241.269 200.464 L 252.065 211.236 284.198 211.236 C 308.690 211.236,316.436 211.129,316.779 210.787 C 317.542 210.023,317.414 166.724,316.645 165.626 L 316.062 164.794 285.091 164.854 C 268.057 164.887,253.530 164.984,252.809 165.070 M185.474 231.180 C 179.426 237.205,174.237 242.590,173.943 243.146 C 173.271 244.417,173.138 304.819,173.802 307.210 L 174.193 308.614 196.199 308.614 L 218.205 308.614 219.402 307.379 L 220.599 306.144 220.599 274.982 C 220.599 257.326,220.457 243.820,220.270 243.820 C 220.089 243.820,219.720 243.285,219.449 242.632 C 218.839 241.159,197.949 220.225,197.090 220.225 C 196.750 220.225,191.523 225.154,185.474 231.180 " stroke="none" fill="#0f0f0f" fill-rule="evenodd"></path><path id="path1" d="M0.000 187.266 L 0.000 374.532 200.000 374.532 L 400.000 374.532 400.000 187.266 L 400.000 0.000 200.000 0.000 L 0.000 0.000 0.000 187.266 M221.227 66.145 L 222.285 66.935 222.380 100.499 L 222.476 134.063 221.518 134.690 C 220.992 135.035,220.319 135.786,220.022 136.359 C 219.726 136.931,219.143 137.508,218.727 137.640 C 218.310 137.773,217.720 138.363,217.416 138.951 C 217.111 139.540,216.521 140.130,216.105 140.262 C 215.688 140.394,215.098 140.984,214.794 141.573 C 214.490 142.162,213.892 142.754,213.466 142.889 C 213.040 143.025,212.535 143.545,212.345 144.046 C 212.154 144.547,211.571 145.120,211.049 145.318 C 210.526 145.517,209.936 146.107,209.738 146.629 C 209.539 147.152,208.949 147.741,208.427 147.940 C 207.905 148.139,207.310 148.742,207.105 149.280 C 206.900 149.819,206.391 150.349,205.973 150.458 C 205.555 150.568,204.969 151.129,204.671 151.706 C 204.372 152.284,203.787 152.864,203.371 152.996 C 202.954 153.128,202.364 153.718,202.060 154.307 C 201.755 154.896,201.198 155.476,200.821 155.595 C 200.444 155.715,199.763 156.317,199.307 156.933 C 198.242 158.373,196.287 158.497,195.252 157.190 C 194.876 156.715,194.268 156.213,193.900 156.073 C 193.532 155.933,192.955 155.337,192.617 154.749 C 192.280 154.160,191.657 153.525,191.233 153.338 C 190.809 153.150,190.267 152.599,190.027 152.114 C 189.788 151.629,189.198 151.036,188.717 150.796 C 188.236 150.556,187.646 149.966,187.406 149.485 C 187.167 149.004,186.573 148.414,186.088 148.175 C 185.603 147.935,185.044 147.374,184.847 146.928 C 184.649 146.482,184.099 145.939,183.624 145.723 C 183.149 145.506,182.576 144.924,182.350 144.429 C 182.125 143.934,181.535 143.344,181.039 143.118 C 180.544 142.892,179.954 142.302,179.728 141.807 C 179.503 141.312,178.913 140.722,178.418 140.496 C 177.922 140.271,177.332 139.681,177.107 139.185 C 176.881 138.690,176.291 138.100,175.796 137.875 C 175.301 137.649,174.704 137.044,174.469 136.530 C 174.235 136.016,173.736 135.497,173.360 135.378 C 171.957 134.933,171.891 133.204,171.996 99.679 L 172.097 67.101 173.013 66.127 L 173.929 65.152 197.050 65.254 C 219.901 65.355,220.183 65.365,221.227 66.145 M142.579 162.568 C 143.904 163.066,167.408 186.486,167.412 187.314 C 167.414 187.649,167.174 188.124,166.878 188.370 C 166.582 188.615,166.228 189.325,166.092 189.948 C 165.931 190.681,165.407 191.338,164.610 191.808 C 163.931 192.208,163.290 192.865,163.185 193.267 C 163.080 193.669,162.553 194.166,162.015 194.371 C 161.476 194.576,160.868 195.184,160.663 195.722 C 160.458 196.261,159.962 196.788,159.559 196.893 C 159.157 196.998,158.491 197.656,158.078 198.355 C 157.666 199.054,157.087 199.625,156.791 199.625 C 156.496 199.625,155.906 200.215,155.480 200.936 C 155.055 201.657,154.465 202.247,154.169 202.247 C 153.874 202.247,153.284 202.837,152.859 203.558 C 152.433 204.279,151.823 204.869,151.503 204.869 C 151.182 204.869,150.723 205.303,150.481 205.833 C 150.239 206.364,149.581 207.036,149.017 207.327 C 148.454 207.619,147.885 208.198,147.753 208.614 C 147.621 209.031,147.019 209.627,146.415 209.939 C 145.812 210.251,145.318 210.751,145.318 211.050 C 145.318 212.933,145.659 212.912,112.002 213.039 C 77.727 213.168,76.383 213.121,75.028 211.766 L 74.130 210.868 74.237 187.738 C 74.350 163.422,74.344 163.506,76.180 162.707 C 77.678 162.055,140.860 161.923,142.579 162.568 M317.985 162.738 C 320.088 163.825,320.029 163.141,320.145 187.877 L 320.252 210.772 319.113 211.730 C 317.416 213.158,317.309 213.162,282.959 213.037 C 249.573 212.916,249.788 212.927,249.269 211.293 C 249.148 210.912,248.629 210.409,248.115 210.175 C 247.601 209.940,246.993 209.339,246.765 208.839 C 246.537 208.338,246.036 207.846,245.650 207.746 C 245.265 207.645,244.656 207.050,244.296 206.423 C 243.937 205.797,243.347 205.207,242.986 205.113 C 242.624 205.018,242.034 204.428,241.675 203.802 C 241.315 203.175,240.725 202.585,240.364 202.491 C 240.002 202.396,239.423 201.824,239.076 201.220 C 238.729 200.616,238.099 199.967,237.675 199.780 C 237.251 199.592,236.709 199.041,236.469 198.556 C 236.230 198.071,235.637 197.478,235.152 197.239 C 234.667 196.999,234.116 196.457,233.928 196.033 C 233.740 195.609,233.092 194.979,232.488 194.632 C 231.883 194.285,231.312 193.705,231.217 193.344 C 231.123 192.983,230.533 192.393,229.906 192.033 C 229.280 191.674,228.679 191.044,228.572 190.634 C 228.465 190.223,228.233 189.888,228.056 189.888 C 227.708 189.888,226.592 187.916,226.592 187.300 C 226.592 187.093,231.690 181.849,237.921 175.648 C 244.153 169.447,249.742 163.878,250.343 163.273 L 251.434 162.172 284.163 162.172 C 312.622 162.172,317.034 162.246,317.985 162.738 M198.996 218.699 C 199.857 219.302,205.449 224.696,211.423 230.686 L 222.285 241.578 222.384 275.277 C 222.483 308.632,222.476 308.985,221.729 309.732 C 220.988 310.473,220.537 310.487,197.017 310.487 L 173.060 310.487 172.579 309.644 C 172.053 308.724,171.623 248.227,172.109 243.494 L 172.354 241.108 183.274 230.210 C 192.290 221.213,195.348 218.477,197.311 217.653 C 197.377 217.626,198.135 218.096,198.996 218.699 " stroke="none" fill="#fcfcfc" fill-rule="evenodd"></path><path id="path2" d="M173.279 66.977 C 172.938 67.354,172.662 67.902,172.665 68.194 C 172.668 68.487,172.883 68.305,173.144 67.790 L 173.618 66.854 196.882 66.854 C 219.234 66.854,220.177 66.882,220.935 67.567 L 221.723 68.281 221.723 99.637 C 221.723 116.882,221.612 131.561,221.476 132.257 C 221.276 133.280,218.964 135.796,209.331 145.473 L 197.433 157.425 196.098 156.334 C 191.030 152.191,173.064 133.511,172.928 132.243 L 172.785 130.899 172.722 132.304 C 172.644 134.057,195.633 157.678,197.418 157.678 C 197.774 157.678,218.451 137.126,220.646 134.590 L 222.097 132.913 222.097 100.522 L 222.097 68.131 221.178 67.211 L 220.259 66.292 197.079 66.292 C 175.098 66.292,173.867 66.328,173.279 66.977 M76.725 163.489 C 74.943 164.457,74.906 164.965,74.906 188.575 C 74.906 210.637,74.910 210.749,75.695 211.459 C 76.456 212.148,77.637 212.176,109.779 212.272 L 143.076 212.371 154.241 201.220 C 164.752 190.723,166.292 188.922,166.292 187.131 C 166.292 186.459,144.483 164.824,142.817 163.843 L 141.252 162.921 109.484 162.936 C 82.601 162.949,77.563 163.034,76.725 163.489 M249.541 165.129 C 248.146 166.342,242.549 171.821,237.104 177.303 L 227.204 187.271 228.021 188.377 C 228.471 188.985,228.839 189.595,228.839 189.732 C 228.839 189.869,233.877 195.017,240.035 201.171 L 251.231 212.360 284.247 212.360 L 317.263 212.360 318.182 211.440 L 319.101 210.521 319.101 188.947 C 319.101 166.333,318.986 164.531,317.472 163.471 C 316.797 162.998,312.178 162.921,284.383 162.921 L 252.079 162.921 249.541 165.129 M142.241 164.196 C 143.563 164.869,163.298 183.975,165.828 187.031 C 166.571 187.928,164.085 190.867,154.066 200.936 L 143.258 211.798 110.487 211.889 C 84.542 211.962,77.520 211.881,76.779 211.504 L 75.843 211.027 75.739 188.753 C 75.625 164.136,75.568 165.065,77.257 164.035 C 78.432 163.319,79.308 163.299,109.469 163.297 L 140.474 163.296 142.241 164.196 M317.494 164.756 L 318.352 166.028 318.352 188.424 L 318.352 210.819 317.520 211.402 C 316.782 211.919,312.982 211.985,284.042 211.985 L 251.397 211.985 240.480 201.083 C 231.014 191.631,227.585 187.727,228.157 187.052 C 229.455 185.524,249.325 165.796,250.431 164.938 C 252.556 163.290,250.214 163.391,285.191 163.439 L 316.637 163.483 317.494 164.756 M195.693 219.262 C 193.477 220.260,172.655 241.667,172.691 242.909 L 172.724 244.007 173.055 242.897 C 173.270 242.178,177.183 237.981,184.165 230.981 C 194.219 220.902,196.231 219.101,197.438 219.101 C 198.128 219.101,219.369 240.339,220.643 242.302 L 221.723 243.967 221.721 275.073 C 221.719 295.284,221.583 306.667,221.332 307.570 C 220.734 309.727,220.658 309.733,196.219 309.736 C 171.878 309.738,173.308 309.887,172.934 307.303 L 172.771 306.180 172.715 307.356 C 172.684 308.002,172.954 308.894,173.315 309.337 L 173.970 310.143 197.272 310.034 C 219.056 309.932,220.617 309.882,221.242 309.256 C 221.927 308.571,222.539 246.992,221.895 243.460 C 221.699 242.383,219.679 240.179,209.967 230.445 C 197.889 218.340,197.834 218.297,195.693 219.262 " stroke="none" fill="#a4a4a4" fill-rule="evenodd"></path><path id="path3" d="M173.367 67.278 C 172.809 67.950,172.346 125.204,172.853 130.940 L 173.088 133.603 183.926 144.423 C 189.887 150.374,195.365 155.734,196.098 156.334 L 197.433 157.425 209.331 145.473 C 218.964 135.796,221.276 133.280,221.476 132.257 C 221.612 131.561,221.723 116.882,221.723 99.637 L 221.723 68.281 220.935 67.567 C 219.781 66.523,174.224 66.246,173.367 67.278 M219.976 68.261 C 220.577 68.700,220.613 70.832,220.516 100.586 L 220.412 132.441 219.396 133.730 C 218.441 134.941,217.813 135.633,216.864 136.517 C 216.643 136.723,216.057 137.313,215.562 137.828 C 215.066 138.343,214.477 138.933,214.251 139.139 C 214.025 139.345,213.436 139.934,212.940 140.449 C 212.445 140.964,211.855 141.554,211.629 141.760 C 211.404 141.966,210.814 142.556,210.318 143.071 C 209.823 143.586,209.222 144.203,208.983 144.442 C 208.744 144.682,208.126 145.299,207.612 145.814 C 207.097 146.329,206.507 146.919,206.301 147.125 C 206.095 147.331,205.505 147.920,204.990 148.435 C 204.475 148.950,203.858 149.568,203.618 149.807 C 203.379 150.046,202.762 150.647,202.247 151.142 C 201.732 151.638,201.168 152.199,200.993 152.389 C 200.531 152.889,199.481 153.888,198.354 154.898 L 197.371 155.778 196.122 154.930 C 195.434 154.463,190.085 149.287,184.234 143.427 L 173.596 132.772 173.487 101.124 C 173.428 83.717,173.473 69.096,173.588 68.633 L 173.797 67.790 196.565 67.790 C 214.252 67.790,219.476 67.895,219.976 68.261 M77.257 164.035 C 75.568 165.065,75.625 164.136,75.739 188.753 L 75.843 211.027 76.779 211.504 C 77.520 211.881,84.542 211.962,110.487 211.889 L 143.258 211.798 154.066 200.936 C 164.085 190.867,166.571 187.928,165.828 187.031 C 163.298 183.975,143.563 164.869,142.241 164.196 L 140.474 163.296 109.469 163.297 C 79.308 163.299,78.432 163.319,77.257 164.035 M252.865 163.564 C 251.448 163.835,232.895 181.472,228.157 187.052 C 227.585 187.727,231.014 191.631,240.480 201.083 L 251.397 211.985 284.042 211.985 C 312.982 211.985,316.782 211.919,317.520 211.402 L 318.352 210.819 318.352 188.424 L 318.352 166.028 317.494 164.756 L 316.637 163.483 285.191 163.439 C 267.896 163.415,253.349 163.471,252.865 163.564 M142.085 165.334 C 144.357 165.997,164.911 187.140,164.482 188.372 C 164.273 188.972,159.405 194.144,153.310 200.242 L 142.509 211.049 110.571 211.150 C 88.660 211.220,78.401 211.128,77.893 210.856 C 77.170 210.469,77.154 209.984,77.154 188.494 L 77.154 166.528 77.972 165.657 L 78.790 164.786 109.901 164.903 C 127.011 164.967,141.494 165.161,142.085 165.334 M316.645 165.626 C 317.414 166.724,317.542 210.023,316.779 210.787 C 316.436 211.129,308.690 211.236,284.198 211.236 L 252.065 211.236 241.269 200.464 C 233.717 192.929,230.336 189.300,230.018 188.387 L 229.563 187.082 240.531 176.154 C 250.082 166.637,251.667 165.206,252.809 165.070 C 253.530 164.984,268.057 164.887,285.091 164.854 L 316.062 164.794 316.645 165.626 M195.693 219.811 C 192.273 221.963,173.094 242.126,172.856 243.820 C 172.186 248.580,172.830 308.143,173.560 308.950 C 174.372 309.847,216.447 310.211,219.555 309.347 C 221.757 308.736,221.718 309.342,221.721 275.073 L 221.723 243.967 220.643 242.302 C 219.284 240.208,198.104 219.101,197.363 219.103 C 197.063 219.103,196.311 219.422,195.693 219.811 M208.332 230.834 C 214.289 236.782,219.173 241.965,219.449 242.632 C 219.720 243.285,220.089 243.820,220.270 243.820 C 220.457 243.820,220.599 257.326,220.599 274.982 L 220.599 306.144 219.402 307.379 L 218.205 308.614 196.199 308.614 L 174.193 308.614 173.802 307.210 C 173.138 304.819,173.271 244.417,173.943 243.146 C 174.736 241.646,196.368 220.225,197.090 220.225 C 197.430 220.225,202.489 224.999,208.332 230.834 " stroke="none" fill="#6c6c6c" fill-rule="evenodd"></path><path id="path4" d="M173.013 66.127 L 172.097 67.101 171.996 99.679 C 171.891 133.204,171.957 134.933,173.360 135.378 C 173.736 135.497,174.235 136.016,174.469 136.530 C 174.704 137.044,175.301 137.649,175.796 137.875 C 176.291 138.100,176.881 138.690,177.107 139.185 C 177.332 139.681,177.922 140.271,178.418 140.496 C 178.913 140.722,179.503 141.312,179.728 141.807 C 179.954 142.302,180.544 142.892,181.039 143.118 C 181.535 143.344,182.125 143.934,182.350 144.429 C 182.576 144.924,183.149 145.506,183.624 145.723 C 184.099 145.939,184.649 146.482,184.847 146.928 C 185.044 147.374,185.603 147.935,186.088 148.175 C 186.573 148.414,187.167 149.004,187.406 149.485 C 187.646 149.966,188.236 150.556,188.717 150.796 C 189.198 151.036,189.788 151.629,190.027 152.114 C 190.267 152.599,190.809 153.150,191.233 153.338 C 191.657 153.525,192.280 154.160,192.617 154.749 C 192.955 155.337,193.532 155.933,193.900 156.073 C 194.268 156.213,194.876 156.715,195.252 157.190 C 196.287 158.497,198.242 158.373,199.307 156.933 C 199.763 156.317,200.444 155.715,200.821 155.595 C 201.198 155.476,201.755 154.896,202.060 154.307 C 202.364 153.718,202.954 153.128,203.371 152.996 C 203.787 152.864,204.372 152.284,204.671 151.706 C 204.969 151.129,205.555 150.568,205.973 150.458 C 206.391 150.349,206.900 149.819,207.105 149.280 C 207.310 148.742,207.905 148.139,208.427 147.940 C 208.949 147.741,209.539 147.152,209.738 146.629 C 209.936 146.107,210.526 145.517,211.049 145.318 C 211.571 145.120,212.154 144.547,212.345 144.046 C 212.535 143.545,213.040 143.025,213.466 142.889 C 213.892 142.754,214.490 142.162,214.794 141.573 C 215.098 140.984,215.688 140.394,216.105 140.262 C 216.521 140.130,217.111 139.540,217.416 138.951 C 217.720 138.363,218.310 137.773,218.727 137.640 C 219.143 137.508,219.726 136.931,220.022 136.359 C 220.319 135.786,220.992 135.035,221.518 134.690 L 222.476 134.063 222.380 100.499 L 222.285 66.935 221.227 66.145 C 220.183 65.365,219.901 65.355,197.050 65.254 L 173.929 65.152 173.013 66.127 M221.178 67.211 L 222.097 68.131 222.097 100.522 L 222.097 132.913 220.646 134.590 C 218.451 137.126,197.774 157.678,197.418 157.678 C 196.703 157.678,193.658 154.817,183.444 144.550 L 172.659 133.709 172.659 100.686 C 172.659 70.482,172.712 67.603,173.279 66.977 C 173.867 66.328,175.098 66.292,197.079 66.292 L 220.259 66.292 221.178 67.211 M76.180 162.707 C 74.344 163.506,74.350 163.422,74.237 187.738 L 74.130 210.868 75.028 211.766 C 76.383 213.121,77.727 213.168,112.002 213.039 C 145.659 212.912,145.318 212.933,145.318 211.050 C 145.318 210.751,145.812 210.251,146.415 209.939 C 147.019 209.627,147.621 209.031,147.753 208.614 C 147.885 208.198,148.454 207.619,149.017 207.327 C 149.581 207.036,150.239 206.364,150.481 205.833 C 150.723 205.303,151.182 204.869,151.503 204.869 C 151.823 204.869,152.433 204.279,152.859 203.558 C 153.284 202.837,153.874 202.247,154.169 202.247 C 154.465 202.247,155.055 201.657,155.480 200.936 C 155.906 200.215,156.496 199.625,156.791 199.625 C 157.087 199.625,157.666 199.054,158.078 198.355 C 158.491 197.656,159.157 196.998,159.559 196.893 C 159.962 196.788,160.458 196.261,160.663 195.722 C 160.868 195.184,161.476 194.576,162.015 194.371 C 162.553 194.166,163.080 193.669,163.185 193.267 C 163.290 192.865,163.931 192.208,164.610 191.808 C 165.407 191.338,165.931 190.681,166.092 189.948 C 166.228 189.325,166.582 188.615,166.878 188.370 C 167.174 188.124,167.414 187.649,167.412 187.314 C 167.408 186.486,143.904 163.066,142.579 162.568 C 140.860 161.923,77.678 162.055,76.180 162.707 M250.343 163.273 C 249.742 163.878,244.153 169.447,237.921 175.648 C 231.690 181.849,226.592 187.093,226.592 187.300 C 226.592 187.916,227.708 189.888,228.056 189.888 C 228.233 189.888,228.465 190.223,228.572 190.634 C 228.679 191.044,229.280 191.674,229.906 192.033 C 230.533 192.393,231.123 192.983,231.217 193.344 C 231.312 193.705,231.883 194.285,232.488 194.632 C 233.092 194.979,233.740 195.609,233.928 196.033 C 234.116 196.457,234.667 196.999,235.152 197.239 C 235.637 197.478,236.230 198.071,236.469 198.556 C 236.709 199.041,237.251 199.592,237.675 199.780 C 238.099 199.967,238.729 200.616,239.076 201.220 C 239.423 201.824,240.002 202.396,240.364 202.491 C 240.725 202.585,241.315 203.175,241.675 203.802 C 242.034 204.428,242.624 205.018,242.986 205.113 C 243.347 205.207,243.937 205.797,244.296 206.423 C 244.656 207.050,245.265 207.645,245.650 207.746 C 246.036 207.846,246.537 208.338,246.765 208.839 C 246.993 209.339,247.601 209.940,248.115 210.175 C 248.629 210.409,249.148 210.912,249.269 211.293 C 249.788 212.927,249.573 212.916,282.959 213.037 C 317.309 213.162,317.416 213.158,319.113 211.730 L 320.252 210.772 320.145 187.877 C 320.062 170.125,319.930 164.793,319.558 164.142 C 318.395 162.106,319.581 162.172,284.163 162.172 L 251.434 162.172 250.343 163.273 M142.817 163.843 C 144.483 164.824,166.292 186.459,166.292 187.131 C 166.292 188.922,164.752 190.723,154.241 201.220 L 143.076 212.371 109.779 212.272 C 77.637 212.176,76.456 212.148,75.695 211.459 C 74.773 210.625,74.426 167.781,75.321 165.216 C 76.146 162.849,74.594 162.953,109.484 162.936 L 141.252 162.921 142.817 163.843 M317.472 163.471 C 318.986 164.531,319.101 166.333,319.101 188.947 L 319.101 210.521 318.182 211.440 L 317.263 212.360 284.247 212.360 L 251.231 212.360 240.035 201.171 C 233.877 195.017,228.839 189.869,228.839 189.732 C 228.839 189.595,228.471 188.985,228.021 188.377 L 227.204 187.271 237.104 177.303 C 242.549 171.821,248.146 166.342,249.541 165.129 L 252.079 162.921 284.383 162.921 C 312.178 162.921,316.797 162.998,317.472 163.471 M195.693 218.508 C 194.869 218.950,189.281 224.216,183.274 230.210 L 172.354 241.108 172.109 243.494 C 171.623 248.227,172.053 308.724,172.579 309.644 L 173.060 310.487 197.017 310.487 C 220.537 310.487,220.988 310.473,221.729 309.732 C 222.476 308.985,222.483 308.632,222.384 275.277 L 222.285 241.578 211.423 230.686 C 202.174 221.411,197.857 217.424,197.311 217.653 C 197.245 217.681,196.517 218.065,195.693 218.508 M209.967 230.445 C 219.679 240.179,221.699 242.383,221.895 243.460 C 222.539 246.992,221.927 308.571,221.242 309.256 C 220.617 309.882,219.056 309.932,197.272 310.034 L 173.970 310.143 173.315 309.337 C 172.701 308.583,172.659 306.386,172.659 275.171 L 172.659 241.810 183.614 230.789 C 193.981 220.360,195.813 218.776,197.546 218.741 C 198.014 218.732,202.459 222.920,209.967 230.445 " stroke="none" fill="#acacac" fill-rule="evenodd"></path></g></svg>